name analog
datacolumns 19
datarows 64
range 0.5265 0.558
endheader
time	ground_force_vx	ground_force_vy	ground_force_vz	ground_force_px	ground_force_py	ground_force_pz	l_ground_force_vx	l_ground_force_vy	l_ground_force_vz	l_ground_force_px	l_ground_force_py	l_ground_force_pz	ground_torque_x	ground_torque_y	ground_torque_z	l_ground_torque_x	l_ground_torque_y	l_ground_torque_z
0.5265	-0.0	-0.0	-0.0	-9.366164207458496	-3.816094636917114	-904.0023803710938	-0.0	-0.0	-0.0	-0.0	-0.0	-0.0	-0.0	-0.0	-0.0	-0.0	-0.0	-0.0
0.527	-0.0	-0.0	-0.0	-11.327467918395996	-3.867353677749634	-903.07666015625	-0.0	-0.0	-0.0	-0.0	-0.0	-0.0	-0.0	-0.0	-0.0	-0.0	-0.0	-0.0
0.5275	-0.0	-0.0	-0.0	-13.469459533691406	-3.460116386413574	-899.7073364257812	-0.0	-0.0	-0.0	-0.0	-0.0	-0.0	-0.0	-0.0	-0.0	-0.0	-0.0	-0.0
0.528	-0.0	-0.0	-0.0	-14.273681640625	-4.417710304260254	-897.356201171875	-0.0	-0.0	-0.0	-0.0	-0.0	-0.0	-0.0	-0.0	-0.0	-0.0	-0.0	-0.0
0.5285	-0.0	-0.0	-0.0	-14.700913429260254	-5.169563293457031	-900.3917846679688	-0.0	-0.0	-0.0	-0.0	-0.0	-0.0	-0.0	-0.0	-0.0	-0.0	-0.0	-0.0
0.529	-0.0	-0.0	-0.0	-14.774720191955566	-5.90152645111084	-899.0462036132812	-0.0	-0.0	-0.0	-0.0	-0.0	-0.0	-0.0	-0.0	-0.0	-0.0	-0.0	-0.0
0.5295	-0.0	-0.0	-0.0	-14.594452857971191	-6.574731826782227	-897.2874145507812	-0.0	-0.0	-0.0	-0.0	-0.0	-0.0	-0.0	-0.0	-0.0	-0.0	-0.0	-0.0
0.53	-0.0	-0.0	-0.0	-13.986930847167969	-7.663088321685791	-897.3377075195312	-0.0	-0.0	-0.0	-0.0	-0.0	-0.0	-0.0	-0.0	-0.0	-0.0	-0.0	-0.0
0.5305	-0.0	-0.0	-0.0	-13.420047760009766	-8.698662757873535	-901.3060302734376	-0.0	-0.0	-0.0	-0.0	-0.0	-0.0	-0.0	-0.0	-0.0	-0.0	-0.0	-0.0
0.531	-0.0	-0.0	-0.0	-11.761309623718262	-10.033202171325684	-903.9879760742188	-0.0	-0.0	-0.0	-0.0	-0.0	-0.0	-0.0	-0.0	-0.0	-0.0	-0.0	-0.0
0.5315	-0.0	-0.0	-0.0	-9.63733196258545	-10.603922843933104	-905.343505859375	-0.0	-0.0	-0.0	-0.0	-0.0	-0.0	-0.0	-0.0	-0.0	-0.0	-0.0	-0.0
0.532	-0.0	-0.0	-0.0	-7.995494842529297	-12.171866416931152	-906.1824340820312	-0.0	-0.0	-0.0	-0.0	-0.0	-0.0	-0.0	-0.0	-0.0	-0.0	-0.0	-0.0
0.5325	-0.0	-0.0	-0.0	-7.223150730133057	-13.049270629882812	-904.0745849609376	-0.0	-0.0	-0.0	-0.0	-0.0	-0.0	-0.0	-0.0	-0.0	-0.0	-0.0	-0.0
0.533	-0.0	-0.0	-0.0	-7.566288948059082	-13.748854637145996	-902.805908203125	-0.0	-0.0	-0.0	-0.0	-0.0	-0.0	-0.0	-0.0	-0.0	-0.0	-0.0	-0.0
0.5335	-0.0	-0.0	-0.0	-7.655577182769775	-14.40281581878662	-900.3211059570312	-0.0	-0.0	-0.0	-0.0	-0.0	-0.0	-0.0	-0.0	-0.0	-0.0	-0.0	-0.0
0.534	-0.0	-0.0	-0.0	-7.761314392089844	-14.439125061035156	-895.2975463867188	-0.0	-0.0	-0.0	-0.0	-0.0	-0.0	-0.0	-0.0	-0.0	-0.0	-0.0	-0.0
0.5345	-0.0	-0.0	-0.0	-7.266045570373535	-14.382776260375977	-893.5594482421875	-0.0	-0.0	-0.0	-0.0	-0.0	-0.0	-0.0	-0.0	-0.0	-0.0	-0.0	-0.0
0.535	-0.0	-0.0	-0.0	-5.940662860870361	-15.03041172027588	-890.2222900390625	-0.0	-0.0	-0.0	-0.0	-0.0	-0.0	-0.0	-0.0	-0.0	-0.0	-0.0	-0.0
0.5355	-0.0	-0.0	-0.0	-5.068748950958252	-15.614055633544922	-886.7705078125	-0.0	-0.0	-0.0	-0.0	-0.0	-0.0	-0.0	-0.0	-0.0	-0.0	-0.0	-0.0
0.536	-0.0	-0.0	-0.0	-3.819844961166382	-16.55389404296875	-884.1058959960938	-0.0	-0.0	-0.0	-0.0	-0.0	-0.0	-0.0	-0.0	-0.0	-0.0	-0.0	-0.0
0.5365	-0.0	-0.0	-0.0	-2.28293251991272	-18.32435417175293	-883.5285034179688	-0.0	-0.0	-0.0	-0.0	-0.0	-0.0	-0.0	-0.0	-0.0	-0.0	-0.0	-0.0
0.537	-0.0	-0.0	-0.0	-1.082101345062256	-20.049867630004883	-883.38427734375	-0.0	-0.0	-0.0	-0.0	-0.0	-0.0	-0.0	-0.0	-0.0	-0.0	-0.0	-0.0
0.5375	-0.0	-0.0	-0.0	-1.4913990497589111	-21.12848663330078	-881.0390625	-0.0	-0.0	-0.0	-0.0	-0.0	-0.0	-0.0	-0.0	-0.0	-0.0	-0.0	-0.0
0.538	-0.0	-0.0	-0.0	-2.2669029235839844	-20.8342342376709	-878.484619140625	-0.0	-0.0	-0.0	-0.0	-0.0	-0.0	-0.0	-0.0	-0.0	-0.0	-0.0	-0.0
0.5385	-0.0	-0.0	-0.0	-3.8786346912384033	-20.840675354003903	-872.146484375	-0.0	-0.0	-0.0	-0.0	-0.0	-0.0	-0.0	-0.0	-0.0	-0.0	-0.0	-0.0
0.539	-0.0	-0.0	-0.0	-5.846144676208496	-20.290119171142575	-870.8790893554688	-0.0	-0.0	-0.0	-0.0	-0.0	-0.0	-0.0	-0.0	-0.0	-0.0	-0.0	-0.0
0.5395	-0.0	-0.0	-0.0	-6.638311386108398	-20.620580673217773	-872.188232421875	-0.0	-0.0	-0.0	-0.0	-0.0	-0.0	-0.0	-0.0	-0.0	-0.0	-0.0	-0.0
0.54	-0.0	-0.0	-0.0	-6.297173500061035	-21.626724243164062	-873.3519897460938	-0.0	-0.0	-0.0	-0.0	-0.0	-0.0	-0.0	-0.0	-0.0	-0.0	-0.0	-0.0
0.5405	-0.0	-0.0	-0.0	-5.300214767456055	-22.92108917236328	-874.5353393554688	-0.0	-0.0	-0.0	-0.0	-0.0	-0.0	-0.0	-0.0	-0.0	-0.0	-0.0	-0.0
0.541	-0.0	-0.0	-0.0	-4.382805824279785	-23.821447372436523	-874.3731689453125	-0.0	-0.0	-0.0	-0.0	-0.0	-0.0	-0.0	-0.0	-0.0	-0.0	-0.0	-0.0
0.5415	-0.0	-0.0	-0.0	-4.109622955322266	-23.718204498291016	-871.5868530273438	-0.0	-0.0	-0.0	-0.0	-0.0	-0.0	-0.0	-0.0	-0.0	-0.0	-0.0	-0.0
0.542	-0.0	-0.0	-0.0	-4.549736022949219	-23.91773796081543	-872.0253295898438	-0.0	-0.0	-0.0	-0.0	-0.0	-0.0	-0.0	-0.0	-0.0	-0.0	-0.0	-0.0
0.5425	-0.0	-0.0	-0.0	-5.7555084228515625	-23.72115898132324	-869.29736328125	-0.0	-0.0	-0.0	-0.0	-0.0	-0.0	-0.0	-0.0	-0.0	-0.0	-0.0	-0.0
0.543	-0.0	-0.0	-0.0	-7.004222869873047	-23.564971923828125	-866.2389526367188	-0.0	-0.0	-0.0	-0.0	-0.0	-0.0	-0.0	-0.0	-0.0	-0.0	-0.0	-0.0
0.5435	-0.0	-0.0	-0.0	-7.508872985839844	-23.208953857421875	-864.0848388671875	-0.0	-0.0	-0.0	-0.0	-0.0	-0.0	-0.0	-0.0	-0.0	-0.0	-0.0	-0.0
0.544	-0.0	-0.0	-0.0	-8.474998474121094	-23.596023559570312	-862.73193359375	-0.0	-0.0	-0.0	-0.0	-0.0	-0.0	-0.0	-0.0	-0.0	-0.0	-0.0	-0.0
0.5445	-0.0	-0.0	-0.0	-8.623281478881836	-23.13686752319336	-860.139892578125	-0.0	-0.0	-0.0	-0.0	-0.0	-0.0	-0.0	-0.0	-0.0	-0.0	-0.0	-0.0
0.545	-0.0	-0.0	-0.0	-8.460007667541504	-23.23307991027832	-859.2244873046875	-0.0	-0.0	-0.0	-0.0	-0.0	-0.0	-0.0	-0.0	-0.0	-0.0	-0.0	-0.0
0.5455	-0.0	-0.0	-0.0	-8.103208541870117	-23.486099243164062	-859.4337768554688	-0.0	-0.0	-0.0	-0.0	-0.0	-0.0	-0.0	-0.0	-0.0	-0.0	-0.0	-0.0
0.546	-0.0	-0.0	-0.0	-6.936110019683838	-24.48859024047852	-860.258056640625	-0.0	-0.0	-0.0	-0.0	-0.0	-0.0	-0.0	-0.0	-0.0	-0.0	-0.0	-0.0
0.5465	-0.0	-0.0	-0.0	-6.22994327545166	-25.089523315429688	-860.316162109375	-0.0	-0.0	-0.0	-0.0	-0.0	-0.0	-0.0	-0.0	-0.0	-0.0	-0.0	-0.0
0.547	-0.0	-0.0	-0.0	-4.192893981933594	-25.155920028686523	-859.3173217773438	-0.0	-0.0	-0.0	-0.0	-0.0	-0.0	-0.0	-0.0	-0.0	-0.0	-0.0	-0.0
0.5475	-0.0	-0.0	-0.0	-3.077204465866089	-25.772239685058597	-856.8457641601562	-0.0	-0.0	-0.0	-0.0	-0.0	-0.0	-0.0	-0.0	-0.0	-0.0	-0.0	-0.0
0.548	-0.0	-0.0	-0.0	-1.1013177633285522	-24.92574882507324	-856.93017578125	-0.0	-0.0	-0.0	-0.0	-0.0	-0.0	-0.0	-0.0	-0.0	-0.0	-0.0	-0.0
0.5485	-0.0	-0.0	-0.0	-0.9148684740066528	-24.969219207763672	-858.6380615234375	-0.0	-0.0	-0.0	-0.0	-0.0	-0.0	-0.0	-0.0	-0.0	-0.0	-0.0	-0.0
0.549	-0.0	-0.0	-0.0	-0.7426512241363525	-24.071290969848636	-857.25830078125	-0.0	-0.0	-0.0	-0.0	-0.0	-0.0	-0.0	-0.0	-0.0	-0.0	-0.0	-0.0
0.5495	-0.0	-0.0	-0.0	-1.2921648025512695	-23.234249114990234	-854.5243530273438	-0.0	-0.0	-0.0	-0.0	-0.0	-0.0	-0.0	-0.0	-0.0	-0.0	-0.0	-0.0
0.55	-0.0	-0.0	-0.0	-1.844724416732788	-21.75093650817871	-853.9891357421875	-0.0	-0.0	-0.0	-0.0	-0.0	-0.0	-0.0	-0.0	-0.0	-0.0	-0.0	-0.0
0.5505	-0.0	-0.0	-0.0	-2.779810667037964	-20.43401908874512	-849.6026000976562	-0.0	-0.0	-0.0	-0.0	-0.0	-0.0	-0.0	-0.0	-0.0	-0.0	-0.0	-0.0
0.551	-0.0	-0.0	-0.0	-2.9439468383789062	-18.89052963256836	-846.106689453125	-0.0	-0.0	-0.0	-0.0	-0.0	-0.0	-0.0	-0.0	-0.0	-0.0	-0.0	-0.0
0.5515	-0.0	-0.0	-0.0	-2.2629554271698	-17.901094436645508	-843.1156616210938	-0.0	-0.0	-0.0	-0.0	-0.0	-0.0	-0.0	-0.0	-0.0	-0.0	-0.0	-0.0
0.552	-0.0	-0.0	-0.0	-2.511980533599853	-16.306171417236328	-842.2783813476562	-0.0	-0.0	-0.0	-0.0	-0.0	-0.0	-0.0	-0.0	-0.0	-0.0	-0.0	-0.0
0.5525	-0.0	-0.0	-0.0	-2.995556354522705	-15.31643295288086	-841.9254760742188	-0.0	-0.0	-0.0	-0.0	-0.0	-0.0	-0.0	-0.0	-0.0	-0.0	-0.0	-0.0
0.553	-0.0	-0.0	-0.0	-4.066043853759766	-14.973907470703123	-842.0748901367188	-0.0	-0.0	-0.0	-0.0	-0.0	-0.0	-0.0	-0.0	-0.0	-0.0	-0.0	-0.0
0.5535	-0.0	-0.0	-0.0	-3.8876006603240967	-14.443120956420898	-839.5478515625	-0.0	-0.0	-0.0	-0.0	-0.0	-0.0	-0.0	-0.0	-0.0	-0.0	-0.0	-0.0
0.554	-0.0	-0.0	-0.0	-3.667712450027466	-13.431096076965332	-839.712646484375	-0.0	-0.0	-0.0	-0.0	-0.0	-0.0	-0.0	-0.0	-0.0	-0.0	-0.0	-0.0
0.5545	-0.0	-0.0	-0.0	-2.90620756149292	-12.176612854003906	-836.927734375	-0.0	-0.0	-0.0	-0.0	-0.0	-0.0	-0.0	-0.0	-0.0	-0.0	-0.0	-0.0
0.555	-0.0	-0.0	-0.0	-2.038142204284668	-11.24745750427246	-832.90673828125	-0.0	-0.0	-0.0	-0.0	-0.0	-0.0	-0.0	-0.0	-0.0	-0.0	-0.0	-0.0
0.5555	-0.0	-0.0	-0.0	-1.91121506690979	-10.722867012023926	-833.504638671875	-0.0	-0.0	-0.0	-0.0	-0.0	-0.0	-0.0	-0.0	-0.0	-0.0	-0.0	-0.0
0.556	-0.0	-0.0	-0.0	-1.9490870237350464	-10.263527870178224	-833.697021484375	-0.0	-0.0	-0.0	-0.0	-0.0	-0.0	-0.0	-0.0	-0.0	-0.0	-0.0	-0.0
0.5565	-0.0	-0.0	-0.0	-1.9869855642318728	-10.160865783691406	-835.1206665039062	-0.0	-0.0	-0.0	-0.0	-0.0	-0.0	-0.0	-0.0	-0.0	-0.0	-0.0	-0.0
0.557	-0.0	-0.0	-0.0	-1.2734179496765137	-10.30126667022705	-830.7323608398438	-0.0	-0.0	-0.0	-0.0	-0.0	-0.0	-0.0	-0.0	-0.0	-0.0	-0.0	-0.0
0.5575	-0.0	-0.0	-0.0	-0.3701872825622558	-10.196662902832031	-830.5736083984375	-0.0	-0.0	-0.0	-0.0	-0.0	-0.0	-0.0	-0.0	-0.0	-0.0	-0.0	-0.0
0.558	-0.0	-0.0	-0.0	0.0626358985900878	-10.809431076049805	-829.5670776367188	-0.0	-0.0	-0.0	-0.0	-0.0	-0.0	-0.0	-0.0	-0.0	-0.0	-0.0	-0.0
